Coordinates
version=1
nRows=11
nColumns=40
inDegrees=yes

Units are S.I. units (second, meters, Newtons, ...)
Angles are in degrees.

endheader
time	pelvis_tilt	pelvis_list	pelvis_rotation	pelvis_tx	pelvis_ty	pelvis_tz	hip_flexion_r	hip_adduction_r	hip_rotation_r	knee_angle_r	knee_angle_r_beta	ankle_angle_r	subtalar_angle_r	mtp_angle_r	hip_flexion_l	hip_adduction_l	hip_rotation_l	knee_angle_l	knee_angle_l_beta	ankle_angle_l	subtalar_angle_l	mtp_angle_l	lumbar_extension	lumbar_bending	lumbar_rotation	arm_flex_r	arm_add_r	arm_rot_r	elbow_flex_r	pro_sup_r	wrist_flex_r	wrist_dev_r	arm_flex_l	arm_add_l	arm_rot_l	elbow_flex_l	pro_sup_l	wrist_flex_l	wrist_dev_l
     54.59000000	     -3.49108135	     -5.92840319	      4.87743255	      1.12015202	      0.93012246	      0.51761434	     12.64464660	      3.17054260	    -18.17432259	     17.86021139	     17.86021139	      9.89356346	     -5.49060552	     -2.73257485	     31.20335357	    -14.82548914	      2.33320223	     65.56135168	     65.56135168	      6.24302407	    -19.24482909	     17.85804367	     -9.70178254	      5.61920820	      2.60241951	      9.84834564	    -14.61997223	     -4.14133753	     58.17850049	     44.97545747	      0.00000000	      0.00000000	      7.77093899	     -7.36648277	     -7.18561757	     37.69252805	     44.91636161	      0.00000000	      0.00000000
     54.60135714	     -3.53524751	     -5.88030937	      5.18931196	      1.11849474	      0.93056531	      0.51832685	     11.82857983	      3.31732426	    -18.26017119	     17.26281118	     17.26281118	     10.18787937	     -5.44915814	     -2.71434047	     32.70881879	    -14.72111291	      1.78360299	     63.41470671	     63.41470671	      6.79766482	    -19.26619938	     17.78257262	     -9.79561044	      5.47067783	      2.04392677	     12.87479213	    -14.35209890	     -4.16691943	     60.85430566	     44.90473570	      0.00000000	      0.00000000	      6.37234387	     -7.25746435	     -6.91471563	     35.89552424	     44.88696387	      0.00000000	      0.00000000
     54.61271429	     -3.57390495	     -5.83844563	      5.48839265	      1.11687247	      0.93091050	      0.51894536	     11.01681507	      3.46741854	    -18.35881090	     16.67278274	     16.67278274	     10.45919397	     -5.40003478	     -2.72222161	     33.95143709	    -14.52337180	      1.24539232	     60.91762943	     60.91762943	      7.23099614	    -19.26344087	     17.71034987	     -9.90507421	      5.36935979	      1.67336652	     15.70773728	    -14.28867107	     -3.85871852	     63.93693253	     44.81029882	      0.00000000	      0.00000000	      5.32165525	     -7.05751546	     -6.51212946	     33.47044422	     44.85388917	      0.00000000	      0.00000000
     54.62407143	     -3.62662955	     -5.68977639	      5.73972528	      1.11526758	      0.93123983	      0.51941640	     10.24798508	      3.49004198	    -18.38201918	     16.14639913	     16.14639913	     10.77398231	     -5.34820102	     -2.74473138	     34.89970681	    -14.11746876	      0.66918554	     58.04819713	     58.04819713	      7.50380373	    -19.20288045	     17.75747532	    -10.02320827	      5.17772266	      1.60317667	     18.51973218	    -14.31722773	     -3.74896054	     66.47211880	     44.73997505	      0.00000000	      0.00000000	      4.33341806	     -6.81170916	     -6.16675516	     31.50660070	     44.81666835	      0.00000000	      0.00000000
     54.63542857	     -3.68287855	     -5.62931490	      6.01318877	      1.11372362	      0.93137509	      0.51972858	      9.47106124	      3.58902831	    -18.52873448	     15.57031888	     15.57031888	     11.03431906	     -5.17282740	     -2.79091447	     35.69825913	    -13.60450863	      0.41753430	     54.96795694	     54.96795694	      7.68218519	    -19.14080247	     17.58814311	    -10.14040318	      5.06551428	      1.38505396	     21.26067204	    -14.33124773	     -3.44710971	     69.54488777	     44.64946401	      0.00000000	      0.00000000	      3.54928228	     -6.52898940	     -5.63404588	     28.85756906	     44.76726788	      0.00000000	      0.00000000
     54.64678571	     -3.92791458	     -5.50238985	      6.20340322	      1.11204954	      0.93116619	      0.51978510	      9.00079764	      3.55630834	    -18.55640977	     15.18444561	     15.18444561	     11.29813627	     -5.09770638	     -2.83939264	     36.50959161	    -12.89522884	      0.25904297	     51.68969043	     51.68969043	      7.85365225	    -18.97198510	     17.60856720	    -10.07150833	      4.89721473	      1.78456213	     24.01755293	    -14.80936355	     -3.64247346	     71.31482704	     44.61431712	      0.00000000	      0.00000000	      2.63315782	     -6.11958620	     -5.39299388	     27.70987332	     44.73073906	      0.00000000	      0.00000000
     54.65814286	     -3.92010416	     -5.39931029	      6.47990225	      1.11071918	      0.93124183	      0.51964045	      8.10706847	      3.58906583	    -18.79563067	     14.56470856	     14.56470856	     11.63975455	     -4.71549371	     -2.96411463	     36.84726517	    -12.10809719	      0.40697827	     48.13254325	     48.13254325	      7.73131954	    -18.64299565	     16.98325018	    -10.25198479	      4.80641922	      1.46178483	     26.61005291	    -14.51775456	     -3.40050557	     74.52689521	     44.52281363	      0.00000000	      0.00000000	      1.74575811	     -5.94406235	     -4.82341910	     25.39488443	     44.66448810	      0.00000000	      0.00000000
     54.66950000	     -4.25848596	     -5.42040686	      6.67399605	      1.10916685	      0.93057947	      0.51935715	      7.78812009	      3.66024375	    -18.88629225	     14.27142713	     14.27142713	     11.95219537	     -4.64304397	     -3.07062243	     37.56022063	    -11.41916579	      0.66687214	     44.63011362	     44.63011362	      7.98832993	    -17.72644747	     16.93621227	     -9.97816098	      4.81957078	      2.03427599	     29.25106011	    -15.13877343	     -3.71137206	     75.92328671	     44.50239326	      0.00000000	      0.00000000	      0.78974993	     -5.55910624	     -4.67265427	     24.73198060	     44.63096808	      0.00000000	      0.00000000
     54.68085714	     -4.26298847	     -5.23085704	      6.88872449	      1.10812499	      0.93048704	      0.51876340	      6.76146423	      3.58424777	    -19.27149370	     13.43265964	     13.43265964	     12.17078945	     -3.82504678	     -3.55164177	     37.32187564	    -10.53547440	      0.90891344	     40.29797677	     40.29797677	      6.10558344	    -17.25995465	     11.32021641	    -10.23087387	      4.69128877	      2.70540060	     30.80115689	    -15.75861090	     -4.22444065	     81.11657734	     44.48057557	      0.00000000	      0.00000000	      0.59137422	     -5.50088895	     -1.52748681	     22.02397610	     44.26736153	      0.00000000	      0.00000000
     54.69221429	     -4.45945190	     -5.10905796	      7.05018512	      1.10697855	      0.93000761	      0.51806658	      6.08602206	      3.55011787	    -19.38244671	     12.84068160	     12.84068160	     12.47009365	     -3.49768450	     -3.62808046	     37.48710499	     -9.74112824	      1.27319073	     36.51545439	     36.51545439	      6.55549978	    -15.57000588	     11.30129349	    -10.15552324	      4.59124009	      2.77917019	     33.52100987	    -15.79607847	     -4.35975646	     82.96817441	     44.44563613	      0.00000000	      0.00000000	     -0.69344850	     -5.30680288	     -1.32206587	     21.68341109	     44.21839294	      0.00000000	      0.00000000
     54.70357143	     -4.62952185	     -5.06053039	      7.23697676	      1.10603800	      0.92942588	      0.51719997	      5.29279663	      3.60326235	    -19.62944282	     12.09013074	     12.09013074	     12.72505345	     -2.90652106	     -3.74286444	     37.53966981	     -9.07468439	      1.65152072	     32.76238341	     32.76238341	      6.97715361	    -13.44825025	     10.97973168	    -10.11313113	      4.60358942	      2.75572230	     36.16506601	    -15.78985453	     -4.38481778	     85.19021376	     44.39728054	      0.00000000	      0.00000000	     -2.06394706	     -5.13923215	     -1.05775617	     21.59105891	     44.15233077	      0.00000000	      0.00000000
